<svg width="280" height="285" viewBox="0 0 280 285" fill="none" xmlns="http://www.w3.org/2000/svg">
<path d="M271.12 173.182C275.087 164.756 277.187 155.508 277.187 146.131C277.187 113.753 252.84 86.9659 221.532 83.2013V83.1353C221.532 37.2959 184.327 0 138.592 0C92.8564 0 55.648 37.2924 55.648 83.1353V83.2047C24.3436 86.9729 0 113.756 0 146.131C0 181.079 28.3662 209.512 63.2324 209.512H128.093C128.447 251.198 162.37 285 204.038 285C245.924 285 280 250.844 280 208.859C280 195.975 276.781 183.833 271.12 173.182ZM63.2359 192.147C37.9221 192.147 17.3274 171.504 17.3274 146.131C17.3274 120.758 37.9221 100.114 63.2359 100.114H74.4583L73.4085 90.4875C73.114 87.8064 72.9719 85.3996 72.9719 83.1388C72.9719 46.8743 102.409 17.3682 138.592 17.3682C174.771 17.3682 204.208 46.8708 204.208 83.1388C204.208 85.4587 204.066 87.855 203.775 90.4667L202.694 100.114H213.958C239.268 100.114 259.859 120.758 259.859 146.131C259.859 149.507 259.468 152.855 258.747 156.119C244.919 141.713 225.509 132.722 204.038 132.722C167.879 132.722 137.563 158.182 129.943 192.147H63.2359ZM204.038 267.635C171.705 267.635 145.4 241.269 145.4 208.859C145.4 176.45 171.705 150.083 204.038 150.083C236.371 150.083 262.676 176.45 262.676 208.859C262.676 241.269 236.371 267.635 204.038 267.635ZM204.038 167.837C199.253 167.837 195.376 171.723 195.376 176.519V212.405C195.376 217.201 199.253 221.087 204.038 221.087C208.823 221.087 212.7 217.201 212.7 212.405V176.519C212.7 171.723 208.823 167.837 204.038 167.837ZM204.038 229.77C199.253 229.77 195.376 233.656 195.376 238.452V239.032C195.376 243.828 199.253 247.714 204.038 247.714C208.823 247.714 212.7 243.828 212.7 239.032V238.452C212.7 233.656 208.823 229.77 204.038 229.77Z" fill="#C2C2C2"/>
</svg>
